<?xml version="1.0" encoding="utf-8"?>
<!-- Generator: Adobe Illustrator 24.0.1, SVG Export Plug-In . SVG Version: 6.00 Build 0)  -->
<svg version="1.1" id="Layer_1" xmlns="http://www.w3.org/2000/svg" xmlns:xlink="http://www.w3.org/1999/xlink" x="0px" y="0px"
	 viewBox="0 0 792 612" style="enable-background:new 0 0 792 612;" xml:space="preserve">
<style type="text/css">
	.st0{fill:#58CAF0;}
	.st1{fill:#F89A3E;}
	.st2{fill:#FEDC2F;}
	.st3{fill:#010101;}
	.st4{fill:#FFFFFF;}
</style>
<g>
	<circle class="st0" cx="119.6" cy="233.43" r="118.59"/>
	<polygon class="st1" points="174.41,215.06 154.93,181.33 193.89,181.33 	"/>
	<rect x="81.63" y="289.36" class="st1" width="20.93" height="33.74"/>
	<rect x="136.05" y="289.36" class="st1" width="20.93" height="33.74"/>
	<polygon class="st2" points="119.04,118.96 20.41,289.78 217.67,289.78 	"/>
	<circle class="st3" cx="118.92" cy="183.3" r="11.89"/>
	<circle class="st4" cx="123.24" cy="183.3" r="7.38"/>
</g>
<g>
	<path class="st4" d="M284.58,205.39c1.07,0,2.04,0.36,2.91,1.08c0.86,0.72,1.3,1.54,1.3,2.47c0,5.61-0.66,13.26-1.99,22.96
		c-1.33,9.7-3.58,16.96-6.75,21.79c-3.17,4.83-7.57,7.24-13.2,7.24c-4.31,0-8.68-1.52-13.09-4.57c-4.41-3.05-6.62-5.68-6.62-7.9
		c0-1.24,0.45-2.24,1.33-3c0.89-0.75,2.07-1.13,3.53-1.13c1.27,0,2.58,0.69,3.95,2.08c4.07,4.22,7.74,6.32,11,6.32
		c2.56,0,4.72-1.54,6.49-4.61c1.77-3.07,3.25-8.53,4.46-16.38c1.21-7.85,1.81-15.31,1.81-22.38c0-1.05,0.55-1.97,1.66-2.78
		C282.49,205.79,283.55,205.39,284.58,205.39z"/>
	<path class="st4" d="M300.37,259.54c-1.46,0-2.54-0.29-3.24-0.86s-1.04-2.08-1.04-4.52c0-1.36,0.06-2.41,0.18-3.13
		c0.12-0.72,0.71-1.29,1.77-1.7c1.06-0.41,2.59-0.62,4.59-0.62c1.49,0,2.62,0.35,3.4,1.04c0.78,0.69,1.17,1.46,1.17,2.29
		c0,1.37-0.21,2.41-0.64,3.14c-0.43,0.73-1.35,1.64-2.78,2.72C302.37,258.99,301.23,259.54,300.37,259.54z"/>
	<path class="st4" d="M355.98,248.68c-0.42,1.02-1.69,3.28-3.82,6.78c-2.13,3.5-3.61,5.45-4.44,5.85c-0.83,0.4-1.56,0.6-2.19,0.6
		c-0.88,0-1.93-0.48-3.16-1.44c-1.23-0.96-1.85-1.96-1.85-2.98c0-0.95,3.06-6.08,9.18-15.39c3.34-5.09,6.38-10.14,9.14-15.14
		c5.53-10.09,8.91-15.96,10.15-17.6c1.23-1.65,2.49-2.47,3.78-2.47c2.07,0,3.57,0.54,4.5,1.61c0.46,0.34,0.69,1.16,0.69,2.45
		c0,0.95-0.09,1.72-0.26,2.3c4.46,13.6,7.95,23.22,10.47,28.86c2.52,5.64,5.05,9.73,7.59,12.27c1.27,1.27,2.04,2.12,2.32,2.56
		c0.28,0.44,0.42,1.02,0.42,1.75c0,1.34-0.49,2.47-1.46,3.38s-2.13,1.37-3.47,1.37c-1.85,0-3.74-1.07-5.65-3.22
		c-1.91-2.14-3.72-5.09-5.41-8.85c-1.69-3.75-2.54-5.86-2.54-6.32c0-0.1-0.06-0.15-0.18-0.15c-1.32,0-4.25,0.46-8.79,1.39
		c-4.55,0.93-8.2,1.83-10.95,2.71c-0.71,0.22-1.33,0.33-1.86,0.33C357.22,249.34,356.49,249.12,355.98,248.68z M377.04,237.49
		c-0.58-1.44-2.32-6.56-5.19-15.35c-0.27-0.8-0.45-1.32-0.55-1.54l-10.38,19.74c1.54-0.27,3.11-0.51,4.72-0.73
		c1.07-0.12,3.8-0.63,8.19-1.54C374.89,237.86,375.97,237.66,377.04,237.49z"/>
	<path class="st4" d="M416.78,198.59c2.63,0,3.95,1.44,3.95,4.31c0,1.32-0.18,2.74-0.55,4.26c-0.37,1.52-1.37,5.3-3,11.32
		c-1.19,4.36-2.1,9.12-2.72,14.28c-0.62,5.15-0.93,9.18-0.93,12.08c0,3.1,0.23,6.78,0.69,11.04c0.12,1.15,0.18,1.86,0.18,2.16
		c0,1.46-0.54,2.72-1.61,3.77c-1.07,1.05-2.24,1.57-3.51,1.57c-1.73,0-2.95-0.82-3.66-2.45c-0.71-1.63-1.06-4.44-1.06-8.41
		c0-8.56,1.01-18.63,3.02-30.24c2.01-11.6,3.66-18.45,4.94-20.55C413.8,199.64,415.22,198.59,416.78,198.59z"/>
	<path class="st4" d="M457.4,247.91c0,2.54-2.13,5.56-6.4,9.08c-4.27,3.52-9.08,5.28-14.44,5.28c-4.12,0-7.36-1.3-9.73-3.89
		s-3.55-6.21-3.55-10.84c0-6.82,2.41-13.22,7.24-19.19c4.83-5.97,9.98-8.96,15.47-8.96c2.73,0,4.92,0.87,6.58,2.6
		c1.66,1.73,2.49,3.79,2.49,6.18c0,4.24-2.04,8.28-6.11,12.12s-9.29,6.49-15.65,7.95c-0.73,0.17-1.1,0.61-1.1,1.32
		c0,1.17,0.52,2.29,1.55,3.35c1.04,1.06,2.42,1.59,4.15,1.59c4.9,0,9.76-2.52,14.59-7.57c0.93-0.97,1.83-1.46,2.71-1.46
		C456.67,245.46,457.4,246.28,457.4,247.91z M432.87,241.44c3.85-0.78,7.24-2.42,10.18-4.94c2.94-2.51,4.41-4.79,4.41-6.84
		c0-0.8-0.23-1.48-0.68-2.03c-0.45-0.55-1.03-0.82-1.74-0.82c-2.12,0-4.47,1.56-7.06,4.68C435.4,234.61,433.7,237.93,432.87,241.44z
		"/>
	<path class="st4" d="M476.59,247.95c-4.34,4.07-7.42,8.3-9.25,12.69c-0.78,1.83-1.61,3.22-2.49,4.17c-2.12-0.12-3.68-0.55-4.68-1.3
		c-1-0.74-1.5-1.97-1.5-3.67c0-1.51,0.65-3.38,1.96-5.61c1.3-2.23,4.54-5.72,9.71-10.47c0.78-0.73,1.44-1.36,1.97-1.9
		c-4.66-6.82-6.98-12.15-6.98-15.98c0-4.02,1.77-6.03,5.3-6.03c2.46,0,3.78,1.8,3.95,5.41c0.15,3.71,1.51,7.54,4.09,11.52
		c1.27-1.15,2.62-2.5,4.06-4.06c0.41-0.44,0.8-0.84,1.17-1.21c3.07-3.24,5.28-6.12,6.62-8.63c0.88-1.58,1.6-2.61,2.18-3.07
		c0.57-0.46,1.42-0.69,2.54-0.69c1.24,0,2.32,0.44,3.22,1.32s1.35,1.95,1.35,3.22c0,2.66-5.67,9.1-17,19.34
		c3.85,4.73,7.96,8.3,12.32,10.71c0.54,0.32,1.05,0.69,1.54,1.13c0.19,0.46,0.29,0.96,0.29,1.5c0,1.24-0.5,2.33-1.5,3.27
		c-1,0.94-2.22,1.41-3.66,1.41C488.2,261,483.13,256.65,476.59,247.95z"/>
	<path class="st4" d="M571.83,247.8c1.85,0,2.78,0.9,2.78,2.71c0,2.24-2.69,5-8.06,8.28c-5.38,3.28-10.57,4.92-15.59,4.92
		c-4.44,0-8.52-1.45-12.25-4.35c-3.73-2.9-5.59-7.13-5.59-12.69c0-5.65,1.95-11.93,5.85-18.83c3.9-6.9,8.73-12.52,14.5-16.85
		c5.76-4.34,11.39-6.51,16.87-6.51c3.27,0,5.87,0.98,7.82,2.92c1.95,1.95,2.92,4.23,2.92,6.84c0,2.83-0.22,4.86-0.66,6.09
		c-0.44,1.23-1.38,2.29-2.82,3.16c-1.44,0.88-2.61,1.32-3.51,1.32c-0.93,0-1.73-0.33-2.41-0.99c-0.68-0.66-1.02-1.55-1.02-2.67
		c0-0.78,0.21-1.91,0.62-3.4c0.39-1.49,0.58-2.73,0.58-3.73c0-1.68-0.57-2.52-1.72-2.52c-3.51,0-7.45,1.88-11.81,5.63
		c-4.36,3.75-8.1,8.42-11.21,13.98s-4.66,10.49-4.66,14.75c0,2.83,0.82,5.22,2.45,7.17c1.63,1.95,4.02,2.92,7.17,2.92
		c1.85,0,4.19-0.5,7-1.5c2.82-1,5.42-2.35,7.81-4.06C569.31,248.67,570.96,247.8,571.83,247.8z"/>
	<path class="st4" d="M610.84,248.24c-6.41,8.46-12.6,12.69-18.57,12.69c-2.19,0-4.08-0.87-5.67-2.6c-1.58-1.73-2.38-3.94-2.38-6.62
		c0-6.46,2.88-13.34,8.63-20.64c5.75-7.3,11.55-10.95,17.4-10.95c2.97,0,4.92,1.5,5.85,4.5c2.8,0,4.21,1.07,4.21,3.22
		c0,1.02-0.27,2.88-0.8,5.56c-0.97,5.02-1.46,9.03-1.46,12.03c0,3.12,0.21,5.31,0.64,6.58c0.43,1.27,0.74,2.1,0.93,2.49
		c0.2,0.39,0.78,0.8,1.75,1.24c0.97,0.46,1.46,1.11,1.46,1.94c0,1.24-0.63,2.28-1.88,3.11c-1.26,0.83-2.57,1.24-3.93,1.24
		C612.44,262.02,610.38,257.43,610.84,248.24z M608.65,227.95c-2.46,0-5.66,2.72-9.6,8.17c-3.94,5.45-5.91,10.07-5.91,13.87
		c0,2,0.42,3,1.24,3c2.88,0,6.42-2.55,10.62-7.66c4.2-5.11,6.31-9.57,6.31-13.4c0-1.22-0.27-2.19-0.82-2.91
		C609.95,228.31,609.33,227.95,608.65,227.95z"/>
	<path class="st4" d="M638.74,242.35l0.62-1.17c2.95-5.92,6.12-10.73,9.52-14.42c3.4-3.69,6.72-5.54,9.96-5.54
		c2.49,0,4.51,0.68,6.09,2.05c1.57,1.37,2.36,2.99,2.36,4.86c0,1.17-0.27,2.18-0.8,3.02c-0.54,0.84-1.28,1.26-2.23,1.26
		c-1.51,0-2.89-0.62-4.13-1.86c-0.88-0.8-1.57-1.21-2.08-1.21c-1.83,0-4.89,2.84-9.18,8.52c-4.29,5.68-6.87,12.06-7.75,19.16
		c-0.27,2.05-0.87,3.48-1.79,4.3c-0.93,0.82-2.18,1.22-3.77,1.22c-1.68,0-2.88-0.96-3.58-2.87s-1.06-5.04-1.06-9.38
		c0-1.78,0.05-4.18,0.15-7.2c0.1-2.85,0.38-6.34,0.84-10.46c0.12-1.07,0.21-1.91,0.26-2.52c0.22-2.39,0.47-4.03,0.75-4.92
		c0.28-0.89,0.93-1.72,1.96-2.5c1.02-0.78,2.16-1.17,3.4-1.17c1.32,0,2.32,0.38,3,1.13c0.68,0.76,1.02,1.58,1.02,2.49
		c0,1.15-0.55,3.52-1.64,7.13c-0.39,1.24-0.72,2.73-0.99,4.46L638.74,242.35z"/>
	<path class="st4" d="M698.29,255.15c-1.17-2.19-2.02-6.29-2.56-12.28c-0.54-6.24-1.73-9.36-3.58-9.36c-1.75,0-4.79,3.25-9.1,9.74
		c-4.31,6.5-6.97,11.29-7.97,14.39c-0.22,0.93-0.63,1.69-1.22,2.3c-0.6,0.61-1.19,0.91-1.77,0.91c-3.71,0-5.56-1.69-5.56-5.08
		c0-1.15,0.37-3.75,1.1-7.82c0.95-5.26,1.43-11.7,1.43-19.3c0-1.15,0.5-2.37,1.5-3.67c1-1.3,2.06-1.96,3.18-1.96
		c1.41,0,2.5,0.35,3.25,1.06c0.75,0.71,1.13,2.58,1.13,5.63c0,2.32-0.7,6.8-2.08,13.45c5.29-12.38,11.19-18.57,17.69-18.57
		c5.65,0,8.97,4.45,9.94,13.34c0.97,9.07,2.1,13.6,3.36,13.6c0.56,0,1.21-0.12,1.94-0.37c0.88-0.29,1.57-0.44,2.08-0.44
		c1.17,0,1.75,0.68,1.75,2.05c0,1.24-0.8,2.57-2.41,3.97c-1.61,1.4-3.63,2.1-6.07,2.1c-2.83,0-4.85-1.23-6.07-3.69H698.29z"/>
	<path class="st4" d="M749.81,247.91c0,2.54-2.13,5.56-6.4,9.08c-4.27,3.52-9.08,5.28-14.44,5.28c-4.12,0-7.36-1.3-9.73-3.89
		s-3.55-6.21-3.55-10.84c0-6.82,2.41-13.22,7.24-19.19c4.83-5.97,9.98-8.96,15.47-8.96c2.73,0,4.92,0.87,6.58,2.6
		c1.66,1.73,2.49,3.79,2.49,6.18c0,4.24-2.04,8.28-6.11,12.12s-9.29,6.49-15.65,7.95c-0.73,0.17-1.1,0.61-1.1,1.32
		c0,1.17,0.52,2.29,1.55,3.35c1.04,1.06,2.42,1.59,4.15,1.59c4.9,0,9.76-2.52,14.59-7.57c0.93-0.97,1.83-1.46,2.71-1.46
		C749.08,245.46,749.81,246.28,749.81,247.91z M725.28,241.44c3.85-0.78,7.24-2.42,10.18-4.94c2.94-2.51,4.41-4.79,4.41-6.84
		c0-0.8-0.23-1.48-0.68-2.03c-0.45-0.55-1.03-0.82-1.74-0.82c-2.12,0-4.47,1.56-7.06,4.68C727.81,234.61,726.1,237.93,725.28,241.44
		z"/>
	<path class="st4" d="M791.16,238.95c-0.39,5.92-1.08,11.67-2.07,17.24c-0.99,5.57-2.44,10.62-4.35,15.15
		c-1.91,4.53-3.97,7.62-6.18,9.27c-2.21,1.65-4.83,2.47-7.88,2.47c-3.27,0-6.4-0.62-9.4-1.86h0.04c-2.58-1.07-4.83-2.51-6.75-4.31
		c-1.91-1.8-2.87-3.33-2.87-4.57c0-1.15,0.29-2.06,0.86-2.74c0.57-0.68,1.32-1.02,2.25-1.02c0.8,0,1.47,0.34,2.01,1.02
		c3.12,4.02,7.65,6.03,13.6,6.03c2.41,0,4.74-2.52,6.98-7.57s3.66-11.1,4.24-18.17c-7.53,5.95-13.33,8.92-17.4,8.92
		c-2.63,0-4.72-1.05-6.25-3.14c-1.54-2.1-2.3-4.62-2.3-7.57c0-2.95,0.69-7.23,2.07-12.85c1.38-5.62,2.55-9.1,3.51-10.46
		c0.96-1.35,2.53-2.03,4.7-2.03c1.17,0,2.07,0.51,2.71,1.52c0.63,1.01,0.95,2.13,0.95,3.35c0,0.37-0.88,2.43-2.63,6.18
		c-2.15,4.58-3.22,8.53-3.22,11.85c0,1.71,0.24,3,0.71,3.89c0.48,0.89,0.97,1.33,1.48,1.33c1.17,0,2.59-0.35,4.26-1.06
		c1.67-0.71,3.63-1.93,5.89-3.67c2.25-1.74,3.71-3.06,4.37-3.97c0.66-0.9,1.18-2.07,1.57-3.49c0.39-1.43,0.69-4.56,0.91-9.41
		c0.12-2.83,0.26-4.61,0.42-5.34c0.16-0.73,0.59-1.4,1.3-2.01c0.71-0.61,1.66-0.91,2.85-0.91c1.61,0,2.75,0.34,3.42,1.02
		c0.67,0.68,1,2.29,1,4.83L791.16,238.95z"/>
</g>
</svg>
